<?xml version="1.0" encoding="utf-8"?>
<!-- Generator: Adobe Illustrator 22.1.0, SVG Export Plug-In . SVG Version: 6.00 Build 0)  -->
<svg version="1.1" id="Слой_1" xmlns="http://www.w3.org/2000/svg" xmlns:xlink="http://www.w3.org/1999/xlink" x="0px" y="0px"
	 viewBox="0 0 512 512" style="enable-background:new 0 0 512 512;" xml:space="preserve">
<style type="text/css">
	.st0{fill:#D34A47;}
	.st1{fill:#FFFFFF;}
</style>
<path class="st0" d="M318.9,496l4.9-81.7l13.5-23.1c0,0-30.8,12.6-82.4,12.6c-51.6,0-81.9-12.4-81.9-12.4l15.2,25.2l5.4,79.4
	c0,8.5,28.1,15.4,62.7,15.4C290.8,511.4,318.9,504.5,318.9,496 M303.4,114.5l10.3-40.7l57-60l-15-12.8l-60.3,63.9l-11.9,48.6
	c-9-0.3-18-0.5-27-0.4c-63.5,0-115.1,7.2-115.1,16.2c0,8.9,51.5,16.2,115.1,16.2c63.5,0,115.1-7.2,115.1-16.2
	C371.5,122.7,343.5,117,303.4,114.5"/>
<path class="st1" d="M297.4,137.3c0,0-2.2,0.5-8.8,0.5c-6.6,0-11.2,0-13.1-1.7c-0.5-0.5-0.8-1.4-0.8-2c0-1.2,0.8-1.8,1.9-2.3l1,1.6
	c-0.4,0.1-0.7,0.3-0.7,0.5c0,0.9,6.7,1.5,11.8,1.4c5.1-0.1,11.3-0.5,11.3-1.4c0-0.3-0.5-0.5-1.3-0.7l1-1.5c1.3,0.4,2.5,1.2,2.5,2.6
	C302.4,136.7,299.4,137,297.4,137.3"/>
<path class="st0" d="M370.6,14c1.4-1.7-0.7-5.9-4.9-9.5c-4.1-3.6-8.6-5.1-10.1-3.5c-1.4,1.7,0.7,5.9,4.9,9.5
	C364.7,14.1,369.2,15.6,370.6,14 M316.1,296.5c-1.4-13,28.4-31.8,20.8-32.4c-16.4,0.9-24.6,19.3-32.9,38.5c-3,7-13.4,37.1-20.2,33.4
	c-6.8-3.7,8.8-28.4,13.2-43c-5.1,3.7-23.6,18.1-28.4,4.6c-7.7,6.5-24.1,10.1-22.2-7.1c-4.1,7.2-13.3,17.3-24.3,13.1
	c-14.5-5.5,8.4-51.5,14.1-49.2c5.7,2.3-1.1,12.8-2.9,16.9c-3.9,9-8.5,20.2-5.4,22.5c5.2,4,19.3-14.9,19.6-15.4
	c2.6-3.5,10.2-26.3,16.2-23.7s-15.1,32.8-7.2,38.8c1.6,1.2,8.1-0.7,12.1-5.1c2.6-2.8,1.7-9,10.3-29.4c8.6-20.5,16.2-46,22.1-44
	c5.9,1.9,1,15-1.1,19.9c-9.9,22.9-27.1,60.7-19,57.9c8.1-2.9,12.3-3,20.2-12.3c7.9-9.3,7.6-24.5,12.8-24.2c5.3,0.3,4.4,5.2,3.1,8.9
	c5.2-5.9,24.6-18.5,29.3-6.1c5.6,14.7-27.8,35.9-19.5,34.8c8.1-1.1,21.2-9.4,26.9-16.9l15.4-138.8c0,0-15.5,12.9-114.4,12.9
	c-98.8,0-112.8-12.6-112.8-12.6l13.1,126.7c7-19.8,23.5-59.9,49.7-58.6c11.9,0.6,27.7,23.5,14.2,24.3c-5.7,0.3-6.3-11.4-13.1-13.1
	c-4.9-1.2-11.8,2.7-16.2,7.1c-8.8,8.6-27.8,42.7-25.3,59.6c3.2,21.6,29.9-7.5,34.4-16.2c3.2-6.1,5.3-24.2,12.3-22.3
	c6.9,1.9-0.6,20.5-5.6,37c-5.7,18.5-8.6,38-15.7,35.8c-7.1-2.2,4.5-26.1,4-30.3c-6.7,6.2-18.9,21.7-34.7,14l8.2,78.7
	c0,0,21.7,17.1,87,17.1s87.8-16.9,87.8-16.9l10.1-91.1C344.1,298.3,317.8,312.6,316.1,296.5"/>
</svg>
