<?xml version="1.0" encoding="utf-8"?>
<!-- Generator: Adobe Illustrator 22.1.0, SVG Export Plug-In . SVG Version: 6.00 Build 0)  -->
<svg version="1.1" id="Слой_1" xmlns="http://www.w3.org/2000/svg" xmlns:xlink="http://www.w3.org/1999/xlink" x="0px" y="0px"
	 viewBox="0 0 512 512" style="enable-background:new 0 0 512 512;" xml:space="preserve">
<style type="text/css">
	.st0{fill:#0170BA;}
	.st1{fill:#29A9DF;}
	.st2{fill:#CFCFCF;}
	.st3{fill:#FFFFFF;}
</style>
<g id="_x23_000000ff">
	<path d="M146.7,0.7c22.4-0.3,44.8-0.1,67.2-0.1c0.1,7,0.2,14-0.1,21c-15.5-0.1-31,0-46.5,0.1c-0.1,10.2-0.3,20.3-0.2,30.5
		c15.6,0.1,31.1,0.2,46.7,0.2c0.2,5.8,0.1,11.5-0.1,17.3c-22.3-0.1-44.7-0.1-67-0.1C146.8,46.6,146.8,23.6,146.7,0.7z"/>
	<path d="M221.9,0.6c22.7,0,45.3-0.2,68,0.1c-0.1,6.6,0,13.2,0,19.9c-16.5-0.1-33,0-49.5,0.2c0,2.6,0,5.2,0,7.8
		c16.5,0.3,32.9,0.3,49.4,0.4c0.1,13.6,0,27.1,0.1,40.7c-22.7,0-45.4,0-68,0.1c-0.1-5.5-0.1-11,0-16.4c15.7,0,31.4,0.1,47.2-0.1
		c0.1-3.5,0.1-7.1,0.1-10.6c-15.8,0-31.6,0.1-47.4-0.1C221.8,28.6,221.8,14.6,221.9,0.6z"/>
	<path d="M297.5,0.7c22.6,0,45.3,0,67.9,0c0.1,6.7,0.2,13.3,0,20c-16.6,0-33.1,0.1-49.7,0.1c0,2.7,0.1,5.4,0.2,8.2
		c16.5-0.1,33,0.1,49.4,0.3c0.1,13.5,0.3,27,0.1,40.5c-22.7-0.1-45.4-0.1-68,0c-0.1-5.5-0.2-10.9,0.1-16.4
		c15.7,0.1,31.4,0.1,47.1-0.1c0-3.5,0.1-7.1,0.1-10.6c-15.8,0.1-31.5,0.1-47.3,0C297.3,28.7,297.4,14.7,297.5,0.7z"/>
</g>
<g id="_x23_0170baff">
	<path class="st0" d="M73.8,98.2c121.5,0,243,0,364.4,0c-6.7,75.6-13.3,151.1-20.2,226.6c-4.1,48.3-8.4,96.6-12.9,144.8
		c-25.9,6.9-51.6,14.7-77.5,21.6c-23.8,7-47.8,13.3-71.6,20.2h-0.7c-22.7-6.7-45.5-12.7-68.2-19.4c-26.7-7.2-53.3-15.2-80-22.4
		c-3.5-36.2-6.6-72.3-9.7-108.5c-5.9-66.9-12.2-133.7-17.9-200.5c-2-20.1-3.3-40.3-5.7-60.4V98.2 M256.6,128
		c-0.3,14.5,0.2,29-0.3,43.5c-41.7-0.1-83.4,0-125,0c0.7,14.1,2.6,28.1,4.5,42c38.8,1.4,77.6-0.1,116.4,1.1
		c-33.9,15.2-68.3,29.5-102.3,44.4c-2.9,1.3-6,2.3-8.7,4.2c0.3,15.5,2.8,30.9,3.9,46.3c20.7-0.1,41.3-0.4,62-0.4
		c16.6-0.1,33.1,0.2,49.7-0.1c-0.8,25.4,0.2,50.9-0.5,76.4c-11.1-1.7-22.1-4.1-33.3-6.1c-8.8-1.9-17.7-2.9-26.4-5.4
		c-1.2-12.2-2.1-24.5-3.2-36.7c-2.5-0.8-5.1-0.7-7.7-0.7c-12.5,0.1-25,0-37.6,0.1c1.2,23.5,3.3,47,6.9,70.2
		c12.3,3.2,24.7,6.4,37,9.7c18.9,5.1,38,9.4,56.9,14.5c2.3,0.5,4.5,1.3,6.9,1.1c1.3,15.5,0.3,31,0.5,46.5c4.4-0.7,8.6-1.8,12.9-3.1
		c35.8-9.7,71.6-19.6,107.4-29.5c1.8-14.1,2.6-28.2,4-42.4c3.7-42.9,7.5-85.8,11.4-128.7c4.6-49.1,8.5-98.2,13.1-147.2
		C355.7,128,306.1,127.9,256.6,128z"/>
</g>
<g id="_x23_29a9dfff">
	<path class="st1" d="M256.6,128c49.5-0.2,99.1,0,148.6-0.1c-4.6,49.1-8.6,98.2-13.1,147.2c-3.9,42.9-7.7,85.8-11.4,128.7
		c-1.4,14.1-2.2,28.3-4,42.4c-35.8,9.8-71.6,19.7-107.4,29.5c-4.2,1.3-8.5,2.4-12.9,3.1c-0.2-15.5,0.7-31-0.5-46.5
		c0.3-0.1,1-0.2,1.3-0.3c33.3-8.4,66.4-17.6,99.6-26.2c4.2-47.1,8.9-94.2,11.8-141.5c-28.3,0.1-56.5,0.1-84.8,0.2
		c-4.1,0-8.2,0-12.3-0.3c15.2-7.8,31.2-14,46.8-21c15-6.8,30.1-13.2,45.2-19.8c2.9-1.3,6-2.4,8.5-4.4c1-3.7,0.9-7.5,1.3-11.3
		c0.9-11.9,2.4-23.8,3-35.8c-40-0.3-80,0-120.1-0.3C256.8,157.1,256.3,142.5,256.6,128z"/>
	<path class="st1" d="M256.8,309.1c19.3-0.3,38.7,0.2,58,0.1c-1.1,19.8-2.7,39.5-3.7,59.2c-11.8,3.9-23.9,7.1-35.8,10.7
		c-6.4,1.9-12.9,3.5-19,6.3C257,360,256,334.6,256.8,309.1z"/>
</g>
<g id="_x23_cfcfcfff">
	<path class="st2" d="M131.3,171.6c41.7,0,83.4-0.2,125,0c0.5,45.9-0.1,91.7,0.5,137.5c-16.6,0.4-33.1,0-49.7,0.1
		c-20.7,0-41.3,0.4-62,0.4c-1.1-15.4-3.6-30.8-3.9-46.3c2.6-1.9,5.7-2.9,8.7-4.2c34.1-14.9,68.4-29.2,102.3-44.4
		c-38.8-1.2-77.6,0.3-116.4-1.1C133.9,199.7,132,185.7,131.3,171.6z"/>
	<path class="st2" d="M148.2,336.7c12.5-0.2,25.1-0.1,37.6-0.1c2.6,0,5.2,0,7.7,0.7c1.1,12.2,1.9,24.5,3.2,36.7
		c8.6,2.5,17.6,3.5,26.4,5.4c11.1,2,22.1,4.5,33.3,6.1c1.1,15.5-0.8,31.1,1,46.5c-0.3,0.1-1,0.2-1.3,0.3c-2.3,0.2-4.6-0.6-6.9-1.1
		c-18.9-5.1-38-9.3-56.9-14.5c-12.3-3.4-24.7-6.5-37-9.7C151.5,383.6,149.4,360.2,148.2,336.7z"/>
</g>
<g id="_x23_ffffffff">
	<path class="st3" d="M256.3,171.6c40,0.2,80.1-0.1,120.1,0.3c-0.6,12-2.1,23.8-3,35.8c-0.4,3.8-0.3,7.6-1.3,11.3
		c-2.5,2-5.6,3.1-8.5,4.4c-15,6.7-30.2,13-45.2,19.8c-15.6,7-31.6,13.2-46.8,21c4.1,0.3,8.2,0.3,12.3,0.3c28.3-0.1,56.5,0,84.8-0.2
		c-3,47.2-7.6,94.3-11.8,141.5c-33.2,8.7-66.3,17.9-99.6,26.2c-1.8-15.4,0.1-31-1-46.5c6.1-2.8,12.6-4.4,19-6.3
		c11.9-3.6,24-6.9,35.8-10.7c1-19.8,2.7-39.5,3.7-59.2c-19.3,0.1-38.7-0.4-58-0.1C256.2,263.3,256.9,217.4,256.3,171.6z"/>
</g>
</svg>
