<?xml version="1.0" encoding="utf-8"?>
<!-- Generator: Adobe Illustrator 22.1.0, SVG Export Plug-In . SVG Version: 6.00 Build 0)  -->
<svg version="1.1"
	 id="svg2" inkscape:version="0.47 r22583" sodipodi:docname="Logo jQuery.pdf" xmlns:cc="http://creativecommons.org/ns#" xmlns:dc="http://purl.org/dc/elements/1.1/" xmlns:inkscape="http://www.inkscape.org/namespaces/inkscape" xmlns:rdf="http://www.w3.org/1999/02/22-rdf-syntax-ns#" xmlns:sodipodi="http://sodipodi.sourceforge.net/DTD/sodipodi-0.dtd" xmlns:svg="http://www.w3.org/2000/svg"
	 xmlns="http://www.w3.org/2000/svg" xmlns:xlink="http://www.w3.org/1999/xlink" x="0px" y="0px" viewBox="0 0 512 512"
	 style="enable-background:new 0 0 512 512;" xml:space="preserve">
<style type="text/css">
	.st0{fill:#21ACE2;}
	.st1{fill:#121B28;}
</style>
<path id="signet" class="st0" d="M279.8-0.5l-9.4,12.9c-12.5,18.5-13.7,41.4-5,61.6c9.2,21.5,27.9,38.6,49.8,46.6
	c0.9,0.4,1.9,0.6,2.8,0.9l1.3,0.5c1.3,0.5,2.5,0.9,3.9,1.1c60.6,11.7,77.1-31.1,81.5-37.5c-14.4,20.7-38.6,25.7-68.4,18.5
	c-2.4-0.6-4.8-1.4-7.2-2.2c-3-1.1-5.8-2.2-8.5-3.5c-5.3-2.5-10.3-5.6-14.9-9.2C279,69.2,262.5,30.9,279.8-0.5L279.8-0.5z
	 M211.1,14.4l-17.3,24.5c-21.5,30.5-20.1,71.6-3.5,103.9c2.8,5.5,5.9,10.6,9.4,15.6c3.2,4.5,6.7,10,11,13.7c1.5,1.7,3.2,3.3,4.6,5
	l1.3,1.3c1.5,1.5,3.2,3.2,4.8,4.5l0.2,0.2l0,0c1.9,1.5,3.7,3.2,5.6,4.6l1.3,0.9c1.9,1.5,3.9,3,5.9,4.4l0.2,0.2
	c0.9,0.6,1.9,1.3,2.8,1.7l1.3,0.7c1.4,0.9,3,1.9,4.4,2.6l0.6,0.5c1.3,0.7,2.6,1.4,3.9,2.2l1.4,0.7c0.9,0.5,1.9,0.9,2.8,1.4l0.5,0.2
	c1.9,0.9,3.7,1.7,5.6,2.6l1.3,0.5c1.5,0.6,3.2,1.3,4.6,1.9c0.6,0.4,1.4,0.5,2,0.7c1.4,0.5,2.8,1.1,4.4,1.5c0.6,0.2,1.3,0.5,2,0.6
	c2,0.6,4.1,1.4,6.2,1.7c109.6,18.1,135.2-66.4,135.2-66.4c-22.7,33-67.1,48.6-114.3,36.4c-2-0.6-4.3-1.1-6.2-1.7l-1.9-0.6
	c-1.4-0.5-3-0.9-4.4-1.5c-0.6-0.4-1.3-0.5-2-0.7c-1.5-0.6-3.2-1.3-4.6-1.9l-1.3-0.5c-1.9-0.7-3.7-1.7-5.6-2.6
	c-0.9-0.5-1.9-0.9-3-1.4l-1.5-0.7c-1.3-0.6-2.5-1.4-3.7-2l-0.7-0.5c-1.5-0.9-3-1.7-4.4-2.6l-1.4-0.9c-0.9-0.6-1.9-1.3-2.8-1.9
	c-2-1.4-3.9-2.8-5.9-4.4l-1.4-0.9c-20.6-16.2-36.9-38.6-44.7-63.8C195.2,67.8,196.9,38.3,211.1,14.4L211.1,14.4z M125.4,45.5
	l-22.9,29.1c-29.3,42.3-25.7,97.2-3.3,142.1c0.5,1.1,1.1,2.2,1.7,3.2c0.4,0.6,0.6,1.4,0.9,2l0.6,1.3c0.4,0.7,0.7,1.4,1.3,2
	c0.7,1.3,1.4,2.5,2.2,3.7c0.5,0.6,0.7,1.4,1.3,2c0.7,1.3,1.7,2.6,2.5,3.9l1.1,1.5c1.3,1.7,2.4,3.4,3.5,5.2v0.2l0.6,0.7
	c1.1,1.4,2.2,3,3.3,4.4l1.3,1.5c0.9,1.3,2,2.5,3.2,3.7l1.1,1.4c1.4,1.5,2.8,3.3,4.3,4.8l0.2,0.2l0.2,0.2c1.4,1.5,2.8,3,4.4,4.5
	l1.4,1.4c1.1,1.1,2.4,2.2,3.4,3.3l1.4,1.4c1.5,1.4,3.2,3,4.6,4.4h0.2l0.7,0.7c1.4,1.3,2.8,2.4,4.4,3.5l1.7,1.4
	c1.3,0.9,2.4,1.9,3.5,2.8l1.9,1.4c1.3,0.9,2.6,2,4.1,3l1.4,0.9l0.5,0.4c1.3,0.9,2.6,1.7,3.9,2.5l1.7,1.1c2,1.3,4.1,2.5,6.1,3.7
	l1.7,0.9c1.5,0.9,3,1.7,4.5,2.5c0.7,0.5,1.7,0.7,2.5,1.3c1.1,0.6,2.2,1.1,3.3,1.7l0.7,0.5l1.3,0.6c1.7,0.7,3.4,1.5,5.2,2.4l1.1,0.5
	c2,0.9,4.1,1.7,6.1,2.5l1.4,0.6c1.9,0.7,3.7,1.4,5.6,2.2l0.7,0.4c2,0.7,4.3,1.4,6.4,2l1.5,0.5c2.2,0.6,4.4,1.4,6.5,1.9
	c142.1,25.9,183.6-85.4,183.6-85.4c-34.6,45.3-96.3,57.1-154.5,43.8c-2.2-0.5-4.4-1.3-6.5-1.9l-1.5-0.5c-2-0.6-4.3-1.3-6.2-2
	l-0.7-0.4c-1.9-0.6-3.7-1.4-5.5-2l-1.5-0.6c-2-0.7-4.1-1.5-5.9-2.5l-1.3-0.5c-1.7-0.7-3.3-1.5-5-2.4l-1.4-0.7
	c-1.3-0.6-2.5-1.3-3.9-2c-0.9-0.5-1.7-0.9-2.6-1.4c-1.5-0.7-3.2-1.7-4.6-2.6l-1.5-0.7c-2-1.3-4.1-2.5-6.1-3.7l-1.5-1.1
	c-1.4-0.9-3-1.9-4.4-2.8l-1.4-0.9c-1.4-0.9-2.8-2-4.1-3l-1.7-1.4c-1.3-0.9-2.5-1.9-3.7-3l-1.7-1.4c-1.5-1.3-3.2-2.5-4.5-3.9
	l-0.5-0.5c-1.5-1.4-3.3-3-4.8-4.4l-1.4-1.4c-1.3-1.1-2.4-2.2-3.4-3.4l-1.4-1.4c-1.4-1.5-2.8-3-4.3-4.5l-0.2-0.2
	c-1.4-1.5-2.8-3.3-4.4-4.8l-1.1-1.4c-1.1-1.3-2-2.5-3.2-3.9l-1.1-1.4c-1.3-1.5-2.5-3.2-3.5-4.8C111.2,156.4,99.5,95.4,125.4,45.5
	L125.4,45.5z"/>
<path id="jQuery" class="st1" d="M133.8,369.8c-35.9,0-51.5,25.8-57.4,54c-6,28.3,1.8,53.1,37.6,52.9h28.2l26.3-0.1
	c1,0,2-0.7,2.4-1.7l4.6-17.6c0.3-1-0.4-1.7-1.4-1.7h-4.3l-4.4-0.1c-0.8,0-1.4-0.5-1.3-1.4l0.1-0.5c0,0,10-24.2,12.2-38.1
	C179.4,396.8,170,369.8,133.8,369.8L133.8,369.8z M504.7,380.1l-5.8,0.1c-1,0-2.7,0-3.7,0h-15.3c-1,0-2.4,0.6-2.9,1.5l-34,49.7
	c-0.5,0.8-1.2,0.7-1.5-0.3l-2.5-11c-0.3-1-1.3-1.7-2.3-1.7h-21.8c-1,0-1.6,0.7-1.4,1.7l9.8,34.2c0.3,1,0.4,2.6,0.1,3.6l-4.3,16.6
	c-0.3,1,0.4,1.7,1.4,1.7H442c1,0,2-0.7,2.4-1.7l4.3-16.6c0.3-1,0.9-2.4,1.6-3.3l55-73.2C506,380.7,505.7,380.1,504.7,380.1
	L504.7,380.1z M317.4,391c-35.5,0-43.9,21.5-48.6,43.3c-4.8,22.2-4.3,42.8,32.4,42.8h1.4h0.4h2.4h0.5c0.4,0,0.7,0,1.1,0h0.3
	c1.5,0,2.9,0,4.4,0h0.1c9.7-0.1,19.5-0.1,23.4-0.2c1,0,2-0.8,2.2-1.7l1.5-7.3l0.4-1.4l1.7-8.7c0.3-1-0.5-1.7-1.5-1.7h-33
	c-13,0-17.1-3.4-15.6-13.8h52.8h0.1c0.8,0,1.6-0.6,1.9-1.4l0.2-0.5l0,0C353.3,411,351,391,317.4,391L317.4,391z M130.9,391.8
	c19.8-0.5,23.7,14.2,18.7,31.1l-0.5,1.7l0,0l-4,14.1l-4,14.1c-0.3,1-1.4,1.7-2.4,1.7h-21c-16,0-19.8-12.5-16-31
	c3.9-18.8,11.6-30.7,27.3-31.8C129.7,391.9,130.3,391.8,130.9,391.8L130.9,391.8z M50.5,392c-1,0-2,0.8-2.3,1.7l-1.9,8.4l-1.9,8.4
	c-0.3,1,0.5,1.7,1.4,1.7h20.2c1,0,2-0.8,2.3-1.7l1.8-8.4l1.8-8.4c0.3-1-0.5-1.7-1.5-1.7H50.5L50.5,392z M196.9,392.3
	c-1,0-2,0.8-2.2,1.7l-4,19.1l-4,19.1l0,0l-0.4,1.7c-4.6,21.2-3.4,41.5,21.9,42.1c0.5,0,0.7,0,0.7,0h39.6c1,0,2-0.7,2.2-1.7l8.5-40.2
	l8.5-40.2c0.3-1-0.5-1.7-1.5-1.7h-18.2c-1,0-2,0.8-2.3,1.7l-6.4,30.1L233,454c-0.3,1-1.2,1.7-2.2,1.7h-12.9c-12.9,0-11.3-8.9-8.7-21
	l0.1-0.4l0.3-1.5l0.1-0.3l0.5-3.1l0.6-3.3c0.3-1,0.5-2.5,0.6-3.4l2.9-14.4l2.9-14.4c0.3-1-0.5-1.7-1.5-1.7L196.9,392.3L196.9,392.3z
	 M370,392.6c-1,0-2,0.7-2.3,1.7l-0.7,3.5l-0.9,4.2l-0.3,1.3l-7.5,35.7l-7.2,33.8c-0.3,1-0.3,2.2-0.2,2.7c0.1,0.5,2,0.9,3,0.9h15.3
	c1,0,2.3-0.2,2.8-0.5s1.4-2.2,1.6-3.2l2.7-13.4l2.7-13.4l0,0l0.4-1.7l3.3-15.3l2.9-13.6c0.3-1,1.2-1.7,2.2-1.7h48
	c1,0,1.6-0.8,1.4-1.7l-0.8-3.4l-0.8-3.5l-0.5-1.7c-1.6-6.3-6.4-10-16.9-10h-16.4h-15L370,392.6L370,392.6z M312.7,411.2
	c11.4,0,13.6,5.5,12.9,11.9c-0.2,1.1-1.2,1.9-2.2,1.9h-27.7c-0.9,0-1.5-0.6-1.4-1.5v-0.1v-0.1c0,0,0.1-0.3,0.1-0.5
	C297.2,415.8,302.6,411.2,312.7,411.2L312.7,411.2z M44.6,418.2c-1,0-2,0.8-2.3,1.7l-2.8,12.6l-2.8,12.6c-0.3,1-0.5,2.6-0.7,3.6
	l-2.8,12.9l-2.8,12.9c-0.3,1-0.6,2.6-1,3.6c0,0-3.8,11.2-10.1,11.1c-0.3,0-0.5,0-0.7,0c-3-0.1-5.4-0.1-5.4-0.1c-1,0-2,0.7-2.3,1.7
	l-2.1,8.8l-2.2,8.9c-0.3,1,0.5,1.7,1.4,1.8c3.6,0.1,11.7,0.2,16.5,0.2c15.8,0,24.3-8.8,29.6-34l6.2-29l5.9-27.3
	c0.3-1-0.5-1.7-1.5-1.7L44.6,418.2L44.6,418.2z"/>
</svg>
