<?xml version="1.0" encoding="utf-8"?>
<!-- Generator: Adobe Illustrator 25.3.1, SVG Export Plug-In . SVG Version: 6.00 Build 0)  -->
<svg version="1.1" id="Слой_1" xmlns="http://www.w3.org/2000/svg" xmlns:xlink="http://www.w3.org/1999/xlink" x="0px" y="0px"
	 viewBox="0 0 256 329" style="enable-background:new 0 0 256 329;" xml:space="preserve">
<style type="text/css">
	.st0{fill:url(#SVGID_1_);}
	.st1{opacity:0.15;enable-background:new    ;}
	.st2{fill:url(#SVGID_2_);}
	.st3{fill:url(#SVGID_3_);}
	.st4{fill:url(#SVGID_4_);}
</style>
<linearGradient id="SVGID_1_" gradientUnits="userSpaceOnUse" x1="-166.8892" y1="582.0666" x2="-167.5408" y2="582.7927" gradientTransform="matrix(134.1538 0 0 -78.3975 22621.0879 45699.9062)">
	<stop  offset="0" style="stop-color:#80C3E6"/>
	<stop  offset="1" style="stop-color:#3380C2"/>
</linearGradient>
<path class="st0" d="M203.2,102l49-78.4H134.4l-16.3,26.1L203.2,102z"/>
<path class="st1" d="M118.1,49.7l8.3-13.4l76.8,65.7L118.1,49.7z"/>
<linearGradient id="SVGID_2_" gradientUnits="userSpaceOnUse" x1="-165.6242" y1="583.3149" x2="-166.4525" y2="583.6375" gradientTransform="matrix(78.8972 0 0 -133.7526 13314.8945 78218.6719)">
	<stop  offset="0" style="stop-color:#F38649"/>
	<stop  offset="0.1849" style="stop-color:#F28147"/>
	<stop  offset="0.4091" style="stop-color:#EF7242"/>
	<stop  offset="0.6537" style="stop-color:#EA5A3A"/>
	<stop  offset="0.911" style="stop-color:#E4382E"/>
	<stop  offset="1" style="stop-color:#E12A29"/>
</linearGradient>
<path class="st2" d="M229.2,244.1V126.3l-25.4-15.9l-53.5,84.5L229.2,244.1z"/>
<path class="st1" d="M150.3,194.8l13.2,8.2l40.3-92.7L150.3,194.8z"/>
<linearGradient id="SVGID_3_" gradientUnits="userSpaceOnUse" x1="-168.0118" y1="583.1789" x2="-167.2491" y2="583.763" gradientTransform="matrix(163.9015 0 0 -133.7526 27569.6816 78108.2969)">
	<stop  offset="0" style="stop-color:#42AB4A"/>
	<stop  offset="1" style="stop-color:#ADD155"/>
</linearGradient>
<path class="st3" d="M39.3,0v117.9l27.3,15.9L203.2,102L39.3,0z"/>
<linearGradient id="SVGID_4_" gradientUnits="userSpaceOnUse" x1="-167.867" y1="582.3077" x2="-167.3228" y2="583.7936" gradientTransform="matrix(186.7225 0 0 -109.4425 31404.1191 63975.5938)">
	<stop  offset="0" style="stop-color:#42AB4A"/>
	<stop  offset="1" style="stop-color:#ADD155"/>
</linearGradient>
<path class="st4" d="M66,142.7l-49,77.1h117.9l68.9-109.4L66,142.7z"/>
<path d="M0,319.7h6.9l3.4-41.9h-7v-8.1h18.8L35,302.4c1,2.9,1.4,4.8,1.4,4.8h0.2c0,0,0.4-2,1.5-4.8l12.8-32.7h18.8v8.1h-6.9
	l3.3,41.9h6.9v8H49.2v-8h6.4l-2.1-29.2c-0.2-2,0.2-5.4,0.2-5.4h-0.2c0,0-0.7,3.2-1.4,5.1L41,316.9h-9.1l-11.1-26.7
	c-0.7-2-1.3-5.1-1.3-5.1h-0.3c0,0,0.4,3.3,0.2,5.4l-2.1,29.2h6.5v8H0L0,319.7L0,319.7z M107,268.8c17.1,0,30,13,30,29.5
	c0,17.1-12.9,30.3-30,30.3c-17.1,0-30-13.3-30-30.3C76.9,281.7,89.8,268.8,107,268.8z M107,319.2c10.4,0,19-9.1,19-21
	c0-11.4-8.6-20.2-19-20.2s-19,8.7-19,20.2C88,310.2,96.5,319.2,107,319.2z M142.3,319.7h6.9v-41.9h-6.9v-8.1h25
	c4.7,0,8.3,0.2,12.1,1.4c11.3,3.3,18.8,13.3,18.8,27.6c0,13.7-6.9,23.6-17.9,27.2c-3.9,1.4-8,1.7-12.8,1.7h-25.1V319.7z
	 M166.9,319.1c3.7,0,6.6-0.3,9.5-1.5c6.6-2.7,10.8-9.5,10.8-18.9c0-9.8-4.4-16.5-11.2-19.1c-2.9-1.1-5.6-1.3-9.1-1.3h-7v40.8H166.9
	L166.9,319.1z M204.3,319.7h5.1l14.6-21.4l-14.2-20.5h-5.1v-8.1h21.9v8.1h-5.7l8,12c1.1,1.3,1.6,2.4,1.6,2.4h0.2
	c0,0.1,0.6-1.1,1.6-2.4l7.7-12h-5.5v-8.1h21v8.1h-5.1l-14.7,21.3l14.4,20.6h5.1v8h-21.9v-8h5.7l-8.1-12.2c-1.1-1.4-1.6-2.5-1.6-2.5
	h-0.2c-0.2,0-0.7,1.1-1.5,2.5l-7.7,12.2h5.6v8h-21.2L204.3,319.7z"/>
</svg>
