<?xml version="1.0" encoding="utf-8"?>
<!-- Generator: Adobe Illustrator 22.1.0, SVG Export Plug-In . SVG Version: 6.00 Build 0)  -->
<svg version="1.1" id="Layer_1" xmlns="http://www.w3.org/2000/svg" xmlns:xlink="http://www.w3.org/1999/xlink" x="0px" y="0px"
	 viewBox="0 0 512 512" style="enable-background:new 0 0 512 512;" xml:space="preserve">
<style type="text/css">
	.st0{fill:url(#SVGID_1_);}
	.st1{fill:url(#SVGID_2_);}
	.st2{fill:url(#SVGID_3_);}
	.st3{fill:url(#SVGID_4_);}
	.st4{fill:#FFFFFF;}
</style>
<g>
	<g>
		
			<linearGradient id="SVGID_1_" gradientUnits="userSpaceOnUse" x1="4.5237" y1="171.5641" x2="219.0655" y2="454.9508" gradientTransform="matrix(1 0 0 -1 0 514)">
			<stop  offset="1.612903e-02" style="stop-color:#765AF8"/>
			<stop  offset="0.3821" style="stop-color:#B345F1"/>
			<stop  offset="0.7581" style="stop-color:#FA3293"/>
			<stop  offset="0.9409" style="stop-color:#FF318C"/>
		</linearGradient>
		<polygon class="st0" points="289.6,111.5 265.5,38.5 87.4,0.5 0.5,99.1 272.1,237.8 		"/>
		
			<linearGradient id="SVGID_2_" gradientUnits="userSpaceOnUse" x1="20.2795" y1="160.4463" x2="234.4775" y2="443.379" gradientTransform="matrix(1 0 0 -1 0 514)">
			<stop  offset="1.612903e-02" style="stop-color:#765AF8"/>
			<stop  offset="0.3821" style="stop-color:#B345F1"/>
			<stop  offset="0.7581" style="stop-color:#FA3293"/>
			<stop  offset="0.9409" style="stop-color:#FF318C"/>
		</linearGradient>
		<polygon class="st1" points="204.9,302.7 199.8,150.9 0.5,99.1 49.4,391.8 204.9,390.3 		"/>
		
			<linearGradient id="SVGID_3_" gradientUnits="userSpaceOnUse" x1="371.7497" y1="174.7414" x2="250.6945" y2="462.0468" gradientTransform="matrix(1 0 0 -1 0 514)">
			<stop  offset="0.1828" style="stop-color:#765AF8"/>
			<stop  offset="0.2382" style="stop-color:#8655F6"/>
			<stop  offset="0.3449" style="stop-color:#9F4CF3"/>
			<stop  offset="0.4425" style="stop-color:#AE47F2"/>
			<stop  offset="0.5219" style="stop-color:#B345F1"/>
		</linearGradient>
		<polygon class="st2" points="161.8,299.8 171.3,179.4 315.9,31.2 445.1,54.5 511.5,220.2 442.1,288.9 329,270.6 258.9,344.3 		"/>
		
			<linearGradient id="SVGID_4_" gradientUnits="userSpaceOnUse" x1="462.2296" y1="94.7854" x2="180.6839" y2="312.4933" gradientTransform="matrix(1 0 0 -1 0 514)">
			<stop  offset="1.612903e-02" style="stop-color:#765AF8"/>
			<stop  offset="0.3821" style="stop-color:#B345F1"/>
		</linearGradient>
		<polygon class="st3" points="315.9,31.2 108.5,215.1 148.7,451.6 321,511.5 511.5,397.6 		"/>
	</g>
	<g>
		<rect x="98.3" y="98.3" width="315.4" height="315.4"/>
		<rect x="128.2" y="354.5" class="st4" width="118.3" height="19.7"/>
		<path class="st4" d="M126.8,139.2h53.3c31.4,0,50.4,18.2,50.4,45.3v0.7c0,30.7-23.4,46-53.3,46h-21.9v39.4h-28.5L126.8,139.2z
			 M178.6,204.9c14.6,0,22.6-8.8,22.6-19.7v-0.7c0-13.1-8.8-19.7-23.4-19.7H156v40.2H178.6z"/>
		<path class="st4" d="M237.8,251.6l16.8-20.4c11.7,9.5,24.1,16.1,39.4,16.1c11.7,0,19-4.4,19-12.4v-0.7c0-7.3-4.4-11-26.3-16.8
			c-26.3-6.6-43.8-13.9-43.8-40.2v-0.7c0-24.1,19-39.4,46-39.4c19,0,35.8,5.8,48.9,16.8l-15.3,21.9c-11.7-8-23.4-13.1-34.3-13.1
			c-11,0-16.8,5.1-16.8,11.7v0.7c0,8.8,5.8,11.7,28.5,17.5c26.3,7.3,41.6,16.8,41.6,39.4v0.7c0,26.3-19.7,40.9-48.2,40.9
			C273.5,272.8,253.8,265.5,237.8,251.6"/>
	</g>
</g>
</svg>
