<?xml version="1.0" encoding="utf-8"?>
<!-- Generator: Adobe Illustrator 22.1.0, SVG Export Plug-In . SVG Version: 6.00 Build 0)  -->
<svg version="1.1" id="Layer_1" xmlns="http://www.w3.org/2000/svg" xmlns:xlink="http://www.w3.org/1999/xlink" x="0px" y="0px"
	 viewBox="0 0 512 512" style="enable-background:new 0 0 512 512;" xml:space="preserve">
<style type="text/css">
	.st0{fill:#CD6799;}
</style>
<path class="st0" d="M440.3,284.7c-17.8,0.1-33.3,4.4-46.3,10.7c-4.8-9.4-9.5-17.8-10.4-24c-0.9-7.2-2.1-11.6-0.9-20.2
	c1.1-8.6,6.2-20.8,6.1-21.7c-0.1-0.9-1.1-5.3-11.4-5.4c-10.3-0.1-19.1,2-20.2,4.7s-3,8.9-4.3,15.2c-1.8,9.3-20.5,42.7-31.3,60.1
	c-3.5-6.8-6.4-12.8-7.1-17.5c-0.9-7.2-2.1-11.6-0.9-20.2c1.1-8.6,6.2-20.8,6.1-21.7c-0.1-0.9-1.1-5.3-11.4-5.4
	c-10.3-0.1-19.1,2-20.2,4.7s-2.1,9.1-4.3,15.2c-2.1,6.2-27.1,61.8-33.6,76.2c-3.4,7.4-6.3,13.3-8.3,17.3l0,0c0,0-0.1,0.3-0.4,0.7
	c-1.8,3.5-2.8,5.3-2.8,5.3s0,0,0,0.1c-1.4,2.5-2.9,4.9-3.6,4.9c-0.6,0-1.6-6.7,0.2-15.9c3.7-19.3,12.6-49.4,12.5-50.4
	c0-0.6,1.7-5.8-5.8-8.5c-7.3-2.7-9.9,1.8-10.5,1.8s-1.1,1.6-1.1,1.6s8.1-33.8-15.5-33.8c-14.7,0-35.1,16.1-45.2,30.7
	c-6.3,3.5-19.9,10.8-34.3,18.8c-5.5,3.1-11.2,6.2-16.5,9.1c-0.4-0.4-0.7-0.8-1.1-1.2c-28.6-30.5-81.4-52.1-79.1-93.1
	c0.8-14.9,6-54.1,101.5-101.7c78.6-38.7,141.1-28,152-4.2c15.5,34-33.5,97.1-114.7,106.2c-31,3.5-47.2-8.5-51.3-13
	c-4.3-4.7-4.9-4.9-6.5-4c-2.6,1.4-0.9,5.6,0,8c2.4,6.3,12.4,17.5,29.3,23.1c14.9,4.9,51.2,7.6,95.2-9.4c49.2-19,87.6-72,76.3-116.3
	c-11.3-45-86-59.8-156.6-34.7c-42,14.9-87.5,38.5-120.3,69.1C4.4,182-1.7,213.6,0.8,226.9c9.1,47,73.9,77.7,99.9,100.3
	c-1.3,0.7-2.5,1.4-3.5,2c-13,6.4-62.4,32.3-74.8,59.6c-14,31,2.2,53.2,13,56.2c33.3,9.2,67.6-7.4,86-34.8
	c18.4-27.4,16.1-63.1,7.7-79.4c-0.1-0.2-0.2-0.4-0.4-0.6c3.4-2,6.8-4,10.2-6c6.6-3.9,13.2-7.6,18.8-10.5c-3.2,8.7-5.5,19-6.6,34
	c-1.4,17.5,5.8,40.3,15.2,49.3c4.2,3.9,9.1,4,12.3,4c11,0,16-9.1,21.5-20c6.7-13.3,12.8-28.7,12.8-28.7s-7.6,41.6,13,41.6
	c7.5,0,15-9.7,18.4-14.7c0,0.1,0,0.1,0,0.1s0.2-0.3,0.6-0.9c0.7-1.2,1.2-2,1.2-2s0-0.1,0-0.2c3-5.2,9.7-17.1,19.7-36.8
	c12.9-25.4,25.3-57.1,25.3-57.1s1.1,7.7,4.9,20.6c2.2,7.6,6.9,15.9,10.6,23.9c-3,4.2-4.9,6.5-4.9,6.5s0,0,0.1,0.1
	c-2.4,3.2-5,6.6-7.9,10c-10.2,12.1-22.3,26-24,30.1c-2,4.8-1.5,8.2,2.2,11c2.7,2.1,7.6,2.3,12.5,2.1c9.1-0.7,15.6-2.9,18.8-4.3
	c4.9-1.8,10.7-4.5,16.1-8.5c10-7.4,16.1-17.9,15.5-31.8c-0.3-7.7-2.8-15.3-5.9-22.5c0.9-1.3,1.8-2.6,2.7-3.9
	c15.8-23.1,28-48.3,28-48.3s1.1,7.7,4.9,20.6c1.9,6.5,5.7,13.6,9.1,20.5c-14.8,12-24,26-27.3,35.2c-5.9,17-1.3,24.6,7.4,26.4
	c3.9,0.8,9.5-1,13.6-2.8c5.2-1.7,11.4-4.6,17.3-8.9c10-7.4,19.6-17.6,19-31.5c-0.3-6.3-2-12.6-4.3-18.7c12.6-5.2,28.8-8.1,49.6-5.7
	c44.4,5.2,53.2,32.9,51.5,44.6c-1.7,11.7-11,18-14.1,20c-3.1,2-4.1,2.6-3.8,4c0.4,2.1,1.9,2,4.5,1.6c3.6-0.7,23.3-9.4,24.2-30.9
	C512.7,314.3,486.5,284.4,440.3,284.7z M97.6,400.2c-14.7,16.1-35.3,22.1-44.1,17c-9.5-5.5-5.8-29.2,12.3-46.2
	c11-10.4,25.2-20,34.6-25.9c2.1-1.3,5.3-3.2,9.1-5.5c0.7-0.4,1-0.6,1-0.6l0,0c0.7-0.5,1.5-0.9,2.2-1.4
	C119.4,361.9,113.1,383.3,97.6,400.2z M204.9,327.2c-5.1,12.5-15.9,44.5-22.4,42.7c-5.6-1.5-9.1-25.8-1.1-49.7
	c4-12,12.5-26.4,17.5-32c8-9,16.9-11.9,19-8.3C220.6,284.7,208.1,319.4,204.9,327.2z M293.5,369.6c-2.1,1.1-4.2,1.9-5.1,1.3
	c-0.7-0.4,0.9-1.9,0.9-1.9s11.1-11.9,15.5-17.4c2.5-3.2,5.5-6.9,8.7-11.1c0,0.4,0,0.8,0,1.2C313.5,356.1,299.7,365.7,293.5,369.6z
	 M361.8,354c-1.6-1.1-1.3-4.9,4-16.5c2.1-4.6,6.9-12.2,15.2-19.6c0.9,3,1.6,5.9,1.5,8.6C382.5,344.5,369.6,351.2,361.8,354z"/>
</svg>
