<?xml version="1.0" encoding="utf-8"?>
<!-- Generator: Adobe Illustrator 22.1.0, SVG Export Plug-In . SVG Version: 6.00 Build 0)  -->
<svg version="1.1" id="Слой_1" xmlns:rdf="http://www.w3.org/1999/02/22-rdf-syntax-ns#"
	 xmlns="http://www.w3.org/2000/svg" xmlns:xlink="http://www.w3.org/1999/xlink" x="0px" y="0px" viewBox="0 0 512 512"
	 style="enable-background:new 0 0 512 512;" xml:space="preserve">
<style type="text/css">
	.st0{fill:#464342;}
</style>
<g>
	<path class="st0" d="M56.1,164.9c-12.7,27.7-19.8,58.6-19.8,91.1c0,87.7,51.4,163.4,125.7,198.5L56.1,164.9z"/>
	<path class="st0" d="M361.4,448.8c68.1-37.3,114.2-109.6,114.2-192.7c0-37.9-9.6-73.6-26.5-104.7c1.3,32.7-8.6,73.2-19.2,103.4
		L361.4,448.8z"/>
	<path class="st0" d="M192.1,466.3c20.2,6.1,41.6,9.5,63.9,9.5c25.8,0,50.5-4.5,73.6-12.7l-69.8-190.7L192.1,466.3z"/>
	<path class="st0" d="M201.4,392l48.5-146.6l-32.3-88.3c-1.2-3.2-2.6-4.8-7.5-4.8h-22.4c-1.2,0-2.2-1-2.2-2.2V137
		c0-1.2,1-2.2,2.2-2.2c41.5,1.8,83.3,1.8,125.4,0c1.2-0.1,2.2,1,2.2,2.2v13.1c0,1.2-1,2.2-2.2,2.2H291c-4.4,0-5.8,2-4.6,5.6
		l78.5,231.4l28.8-87.8c34.9-106.2-29.8-117.3-28.2-170.2c0.9-26.1,20-37.5,39.1-37c-39.1-36-91.3-58-148.6-58
		c-77.3,0-145.3,39.9-184.3,100.6c24.9-0.2,51.7-0.5,78.4-1.9c1.1-0.1,2,1,2,2.2v13.1c0,1.2-0.9,2.2-2,2.2h-25.5c-2.8,0-4,1.7-3,4.6
		L201.4,392z"/>
</g>
<g>
	<path class="st0" d="M256,15.5c32.5,0,64,6.4,93.6,18.9c28.6,12.1,54.4,29.5,76.5,51.5c22.1,22.1,39.4,47.8,51.5,76.5
		c12.5,29.6,18.9,61.1,18.9,93.6s-6.4,64-18.9,93.6c-12.1,28.6-29.5,54.4-51.5,76.5c-22.1,22.1-47.8,39.4-76.5,51.5
		c-29.6,12.5-61.1,18.9-93.6,18.9s-64-6.4-93.6-18.9c-28.6-12.1-54.4-29.5-76.5-51.5c-22.1-22.1-39.4-47.8-51.5-76.5
		C21.9,320,15.5,288.5,15.5,256s6.4-64,18.9-93.6c12.1-28.6,29.5-54.4,51.5-76.5c22.1-22.1,47.8-39.4,76.5-51.5
		C192,21.9,223.5,15.5,256,15.5 M256,0.5C114.9,0.5,0.5,114.9,0.5,256S114.9,511.5,256,511.5S511.5,397.1,511.5,256
		S397.1,0.5,256,0.5L256,0.5z"/>
</g>
</svg>
